<svg xmlns="http://www.w3.org/2000/svg" viewBox="0 0 24 24" width="24" height="24">
  <path d="M0 0L0 2L3.21875 2L7.21875 18L20.75 18L20.96875 17.28125L23.03125 10.34375L23.75 8L6.78125 8L4.78125 0 Z M 7.28125 10L21.0625 10L19.25 16L8.78125 16 Z M 10.5 19C9.121094 19 8 20.121094 8 21.5C8 22.878906 9.121094 24 10.5 24C11.878906 24 13 22.878906 13 21.5C13 20.121094 11.878906 19 10.5 19 Z M 17.5 19C16.121094 19 15 20.121094 15 21.5C15 22.878906 16.121094 24 17.5 24C18.878906 24 20 22.878906 20 21.5C20 20.121094 18.878906 19 17.5 19Z" fill="#FFFFFF" />
</svg>
