<svg width="24" height="24" viewBox="0 0 24 24" fill="none" xmlns="http://www.w3.org/2000/svg">
    <path d="M11.9997 2H8.66634C6.82539 2 5.33301 3.49238 5.33301 5.33333C5.33301 7.17428 6.82539 8.66667 8.66634 8.66667H11.9997V2Z" stroke="black" stroke-width="1.5"/>
    <path d="M11.9997 8.66663H8.66634C6.82539 8.66663 5.33301 10.159 5.33301 12C5.33301 13.8409 6.82539 15.3333 8.66634 15.3333H11.9997V8.66663Z" stroke="black" stroke-width="1.5"/>
    <path d="M18.6667 12C18.6667 13.8409 17.1743 15.3333 15.3333 15.3333C13.4924 15.3333 12 13.8409 12 12C12 10.159 13.4924 8.66663 15.3333 8.66663C17.1743 8.66663 18.6667 10.159 18.6667 12Z" stroke="black" stroke-width="1.5"/>
    <path d="M8.66634 15.3334H11.9997V18.6667C11.9997 20.5077 10.5073 22 8.66634 22C6.82539 22 5.33301 20.5077 5.33301 18.6667C5.33301 16.8258 6.82539 15.3334 8.66634 15.3334Z" stroke="black" stroke-width="1.5"/>
    <path d="M12 2H15.3333C17.1743 2 18.6667 3.49238 18.6667 5.33333C18.6667 7.17428 17.1743 8.66667 15.3333 8.66667H12V2Z" stroke="black" stroke-width="1.5"/>
</svg>
