<svg xmlns="http://www.w3.org/2000/svg" version="1.1"
     width="24" height="24"
     viewBox="0 0 1500 1500">
    <g transform="matrix(1,0,0,1,-0.21332335329316265,-0.21332335329350371)">
        <svg viewBox="0 0 334 334" data-background-color="#ececea"
             preserveAspectRatio="xMidYMid meet" height="1500" width="1500"
             xmlns="http://www.w3.org/2000/svg"
        >
            <g id="tight-bounds"
               transform="matrix(1,0,0,1,0.04749999999998522,0.04750000000001364)">
                <svg viewBox="0 0 333.90454557049503 333.90454557049503"
                     height="333.90454557049503" width="333.90454557049503">
                    <g>
                        <svg></svg>
                    </g>
                    <g>
                        <svg viewBox="0 0 333.90454557049503 333.90454557049503"
                             height="333.90454557049503"
                             width="333.90454557049503">
                            <g>
                                <path d="M0 166.952c0-92.205 74.747-166.952 166.952-166.952 92.205 0 166.952 74.747 166.953 166.952 0 92.205-74.747 166.952-166.953 166.953-92.205 0-166.952-74.747-166.952-166.953zM166.952 327.85c88.861 0 160.898-72.036 160.898-160.898 0-88.861-72.036-160.898-160.898-160.898-88.861 0-160.898 72.036-160.898 160.898 0 88.861 72.036 160.898 160.898 160.898z"
                                      data-fill-palette-color="tertiary"
                                      fill="#7a105e"
                                      stroke="transparent"></path>
                                <ellipse rx="160.27418187383762"
                                         ry="160.27418187383762"
                                         cx="166.95227278524752"
                                         cy="166.95227278524752" fill="#7a105e"
                                         stroke="transparent" stroke-width="0"
                                         fill-opacity="1"
                                         data-fill-palette-color="tertiary"></ellipse>
                            </g>
                            <g transform="matrix(1,0,0,1,93.42769040583237,71.17305217166896)">
                                <svg viewBox="0 0 147.0491647588303 191.55844122715712"
                                     height="191.55844122715712"
                                     width="147.0491647588303">
                                    <g>
                                        <svg viewBox="0 0 147.0491647588303 191.55844122715712"
                                             height="191.55844122715712"
                                             width="147.0491647588303">
                                            <g>
                                                <svg viewBox="0 0 213.1584412271571 277.677869186488"
                                                     height="191.55844122715712"
                                                     width="147.0491647588303">
                                                    <g transform="matrix(1,0,0,1,0,136.01700793582077)">
                                                        <svg viewBox="0 0 213.1584412271571 141.6608612506672"
                                                             height="141.6608612506672"
                                                             width="213.1584412271571">
                                                            <g id="textblocktransform">
                                                                <svg viewBox="0 0 213.1584412271571 141.6608612506672"
                                                                     height="141.6608612506672"
                                                                     width="213.1584412271571"
                                                                     id="textblock">
                                                                    <g>
                                                                        <svg viewBox="0 0 213.1584412271571 97.32002769520852"
                                                                             height="97.32002769520852"
                                                                             width="213.1584412271571">
                                                                            <g transform="matrix(1,0,0,1,0,0)">
                                                                                <svg width="213.1584412271571"
                                                                                     viewBox="3 -36.8 81.15 37.05"
                                                                                     height="97.32002769520852"
                                                                                     data-palette-color="#d9f8f5">
                                                                                    <path d="M6.25 0L6.25 0Q5.05 0 4.03-0.53 3-1.05 3-2.05L3-2.05 3-34.5Q3-35.55 4.03-36.05 5.05-36.55 6.25-36.55L6.25-36.55Q7.45-36.55 8.22-36.3 9-36.05 9.68-35.33 10.35-34.6 11.1-33.1L11.1-33.1 20.75-14.45 20.75-34.55Q20.75-35.6 21.78-36.08 22.8-36.55 24-36.55L24-36.55Q25.25-36.55 26.25-36.08 27.25-35.6 27.25-34.55L27.25-34.55 27.25-2.05Q27.25-1.05 26.25-0.53 25.25 0 24 0L24 0Q22.85 0 21.88-0.45 20.9-0.9 20.3-2.05L20.3-2.05 9.5-22.15 9.5-2.05Q9.5-1.05 8.5-0.53 7.5 0 6.25 0ZM53.95 0L36.15 0Q35.1 0 34.2-0.53 33.3-1.05 33.3-2.05L33.3-2.05 33.3-34.5Q33.3-35.5 34.2-36.02 35.1-36.55 36.15-36.55L36.15-36.55 53.95-36.55Q55.05-36.55 55.52-35.65 56-34.75 56-33.75L56-33.75Q56-32.55 55.47-31.7 54.95-30.85 53.95-30.85L53.95-30.85 39.8-30.85 39.8-20.85 47.4-20.85Q48.4-20.85 48.92-20.08 49.45-19.3 49.45-18.25L49.45-18.25Q49.45-17.4 48.97-16.57 48.5-15.75 47.4-15.75L47.4-15.75 39.8-15.75 39.8-5.7 53.95-5.7Q54.95-5.7 55.47-4.85 56-4 56-2.8L56-2.8Q56-1.8 55.52-0.9 55.05 0 53.95 0L53.95 0ZM61.7 0.25L61.7 0.25Q60.8 0.25 59.8-0.2 58.8-0.65 58.09-1.38 57.4-2.1 57.4-3L57.4-3Q57.4-3.55 57.8-4.2L57.8-4.2 66.45-18.3 58.09-32.35Q57.65-33.05 57.65-33.75L57.65-33.75Q57.65-34.6 58.3-35.3 58.95-36 59.92-36.4 60.9-36.8 61.8-36.8L61.8-36.8Q62.59-36.8 63.12-36.43 63.65-36.05 63.95-35.4L63.95-35.4 70.75-23.15 77.59-35.4Q77.95-36.05 78.47-36.43 79-36.8 79.75-36.8L79.75-36.8Q80.65-36.8 81.62-36.4 82.59-36 83.25-35.3 83.9-34.6 83.9-33.75L83.9-33.75Q83.9-33.05 83.45-32.35L83.45-32.35 75.09-18.3 83.75-4.2Q84.15-3.55 84.15-3L84.15-3Q84.15-2.1 83.45-1.38 82.75-0.65 81.77-0.2 80.8 0.25 79.84 0.25L79.84 0.25Q79.3 0.25 78.82-0.05 78.34-0.35 78.09-0.8L78.09-0.8 70.75-13.65 63.45-0.8Q63.2-0.35 62.72-0.05 62.25 0.25 61.7 0.25Z"
                                                                                          opacity="1"
                                                                                          transform="matrix(1,0,0,1,0,0)"
                                                                                          fill="#d9f8f5"
                                                                                          class="wordmark-text-0"
                                                                                          data-fill-palette-color="quaternary"
                                                                                          id="text-0"></path>
                                                                                </svg>
                                                                            </g>
                                                                        </svg>
                                                                    </g>
                                                                    <g transform="matrix(1,0,0,1,0,120.29495055338256)">
                                                                        <svg viewBox="0 0 213.1584412271571 21.365910697284626"
                                                                             height="21.365910697284626"
                                                                             width="213.1584412271571">
                                                                            <g transform="matrix(1,0,0,1,0,0)">
                                                                                <svg width="213.1584412271571"
                                                                                     viewBox="3.91 -32.64 415.71999999999997 41.67"
                                                                                     height="21.365910697284626"
                                                                                     data-palette-color="#d9f8f5">
                                                                                    <path d="M5.66 0.07Q4.74 0.07 4.32-0.16 3.91-0.39 3.91-0.88L3.91-0.88 3.91-29.52Q3.91-30.49 5.66-30.49L5.66-30.49 6.57-30.49Q7.25-30.49 7.65-30.3 8.06-30.1 8.37-29.66L8.37-29.66 22.24-8.74 23.54-6.3 23.54-29.52Q23.54-30.49 25.24-30.49L25.24-30.49 25.59-30.49Q27.29-30.49 27.29-29.52L27.29-29.52 27.29-0.88Q27.29-0.39 26.88-0.16 26.46 0.07 25.59 0.07L25.59 0.07 24.71 0.07Q24.1 0.07 23.73-0.07 23.36-0.22 23.17-0.54L23.17-0.54 8.86-22.12 7.69-24.37 7.69-0.88Q7.69 0.07 5.96 0.07L5.96 0.07 5.66 0.07ZM44.24 0.24Q38.84 0.24 36.22-2.58 33.59-5.4 33.59-11.21L33.59-11.21Q33.59-16.97 36.15-19.96 38.72-22.95 43.7-22.95L43.7-22.95Q48.14-22.95 50.4-20.07 52.66-17.19 52.66-11.62L52.66-11.62Q52.66-11.38 52.4-10.95 52.15-10.52 51.79-10.19 51.44-9.86 51.19-9.86L51.19-9.86 37.5-9.86Q37.77-6.23 39.37-4.55 40.96-2.88 44.19-2.88L44.19-2.88Q45.99-2.88 47.3-3.32 48.61-3.76 49.83-4.39L49.83-4.39Q49.95-4.44 50.19-4.57 50.44-4.69 50.53-4.69L50.53-4.69Q50.8-4.69 51.16-4.26 51.51-3.83 51.77-3.31 52.02-2.78 52.02-2.54L52.02-2.54Q52.02-2 50.95-1.34 49.88-0.68 48.08-0.22 46.29 0.24 44.24 0.24L44.24 0.24ZM37.5-12.99L48.78-12.99Q48.78-19.82 43.58-19.82L43.58-19.82Q37.99-19.82 37.5-12.99L37.5-12.99ZM57.34 0.07Q56.34 0.07 55.92-0.1 55.49-0.27 55.49-0.66L55.49-0.66Q55.49-0.95 55.83-1.44L55.83-1.44 62.86-11.62 56.34-21.29Q56.03-21.78 56.03-22.05L56.03-22.05Q56.03-22.44 56.46-22.61 56.9-22.78 57.98-22.78L57.98-22.78 58.39-22.78Q59.13-22.78 59.57-22.64 60-22.51 60.27-22.12L60.27-22.12 64.4-15.94Q64.77-15.36 65.28-14.4L65.28-14.4Q65.38-14.58 65.62-14.99 65.86-15.41 66.21-15.94L66.21-15.94 70.36-22.19Q70.75-22.78 72.31-22.78L72.31-22.78 72.48-22.78Q73.48-22.78 73.9-22.61 74.31-22.44 74.31-22.05L74.31-22.05Q74.31-21.75 73.97-21.29L73.97-21.29 67.43-11.74 74.43-1.44Q74.8-0.9 74.8-0.66L74.8-0.66Q74.8-0.29 74.34-0.11 73.87 0.07 72.8 0.07L72.8 0.07 72.41 0.07Q71.65 0.07 71.22-0.06 70.8-0.2 70.55-0.59L70.55-0.59 65.94-7.47Q65.55-8.06 65.33-8.46 65.11-8.86 65.03-8.98L65.03-8.98Q64.99-8.89 64.75-8.48 64.52-8.08 64.11-7.47L64.11-7.47 59.44-0.54Q59.03 0.07 57.49 0.07L57.49 0.07 57.34 0.07ZM85.91 0.24Q83.73 0.24 82.02-1.07 80.31-2.39 80.31-5.74L80.31-5.74 80.31-19.58 78.14-19.58Q77.68-19.58 77.47-19.89 77.26-20.19 77.26-20.87L77.26-20.87 77.26-21.41Q77.26-22.09 77.47-22.4 77.68-22.71 78.14-22.71L78.14-22.71 80.31-22.71 80.83-27.25Q80.88-28.2 82.22-28.2L82.22-28.2 82.63-28.2Q83.32-28.2 83.64-27.97 83.95-27.73 83.95-27.25L83.95-27.25 83.95-22.71 87.59-22.71Q88.05-22.71 88.26-22.4 88.47-22.09 88.47-21.41L88.47-21.41 88.47-20.87Q88.47-20.19 88.26-19.89 88.05-19.58 87.59-19.58L87.59-19.58 83.95-19.58 83.95-6.08Q83.95-4.3 84.58-3.59 85.2-2.88 86.27-2.88L86.27-2.88Q87.1-2.88 87.55-2.98 88.01-3.08 88.15-3.08L88.15-3.08Q88.54-3.08 88.8-2.29 89.06-1.51 89.06-1.05L89.06-1.05Q89.06 0.24 85.91 0.24L85.91 0.24ZM116.81 0.24Q110.27 0.24 106.85-3.53 103.43-7.3 103.43-14.94L103.43-14.94Q103.43-30.66 117.47-30.66L117.47-30.66Q119.52-30.66 121.45-30.24 123.38-29.81 124.57-29.17 125.77-28.54 125.77-27.95L125.77-27.95Q125.77-27.59 125.51-26.98 125.26-26.37 124.91-25.9 124.57-25.44 124.3-25.44L124.3-25.44Q124.18-25.44 123.62-25.76L123.62-25.76Q122.35-26.44 120.96-26.9 119.57-27.37 117.57-27.37L117.57-27.37Q112.05-27.37 109.7-24.33 107.36-21.29 107.36-15.33L107.36-15.33Q107.36-9.72 109.55-6.38 111.73-3.05 117.1-3.05L117.1-3.05Q118.74-3.05 120.26-3.21 121.79-3.37 122.69-3.61L122.69-3.61 122.69-12.38 117.61-12.38Q117.15-12.38 116.94-12.68 116.74-12.99 116.74-13.67L116.74-13.67 116.74-14.38Q116.74-15.06 116.94-15.37 117.15-15.67 117.61-15.67L117.61-15.67 125.21-15.67Q125.89-15.67 126.21-15.37 126.53-15.06 126.53-14.38L126.53-14.38 126.53-2.88Q126.53-1.2 123.79-0.48 121.06 0.24 116.81 0.24L116.81 0.24ZM143.15 0.24Q137.75 0.24 135.13-2.58 132.5-5.4 132.5-11.21L132.5-11.21Q132.5-16.97 135.07-19.96 137.63-22.95 142.61-22.95L142.61-22.95Q147.06-22.95 149.31-20.07 151.57-17.19 151.57-11.62L151.57-11.62Q151.57-11.38 151.32-10.95 151.06-10.52 150.71-10.19 150.35-9.86 150.11-9.86L150.11-9.86 136.41-9.86Q136.68-6.23 138.28-4.55 139.88-2.88 143.1-2.88L143.1-2.88Q144.91-2.88 146.21-3.32 147.52-3.76 148.74-4.39L148.74-4.39Q148.86-4.44 149.11-4.57 149.35-4.69 149.45-4.69L149.45-4.69Q149.72-4.69 150.07-4.26 150.42-3.83 150.68-3.31 150.94-2.78 150.94-2.54L150.94-2.54Q150.94-2 149.86-1.34 148.79-0.68 146.99-0.22 145.2 0.24 143.15 0.24L143.15 0.24ZM136.41-12.99L147.69-12.99Q147.69-19.82 142.49-19.82L142.49-19.82Q136.9-19.82 136.41-12.99L136.41-12.99ZM159.02 0.07Q158.09 0.07 157.67-0.16 157.26-0.39 157.26-0.88L157.26-0.88 157.26-16.11Q157.26-18.95 156.99-20.2 156.72-21.46 156.72-21.58L156.72-21.58Q156.72-22.12 157.54-22.35 158.36-22.58 159.09-22.58L159.09-22.58Q159.7-22.58 159.99-21.92 160.29-21.26 160.42-20.58 160.55-19.9 160.6-19.7L160.6-19.7Q161.97-21.24 163.76-22.09 165.56-22.95 167.39-22.95L167.39-22.95Q170.71-22.95 172.58-21.08 174.45-19.21 174.45-15.94L174.45-15.94 174.45-0.88Q174.45-0.39 174.03-0.16 173.62 0.07 172.71 0.07L172.71 0.07 172.52 0.07Q171.64 0.07 171.22-0.16 170.81-0.39 170.81-0.88L170.81-0.88 170.81-15.58Q170.81-17.58 169.65-18.69 168.49-19.8 166.39-19.8L166.39-19.8Q164.92-19.8 163.45-18.98 161.97-18.16 160.9-16.75L160.9-16.75 160.9-0.88Q160.9-0.39 160.48-0.16 160.07 0.07 159.19 0.07L159.19 0.07 159.02 0.07ZM190.73 0.24Q185.33 0.24 182.71-2.58 180.08-5.4 180.08-11.21L180.08-11.21Q180.08-16.97 182.65-19.96 185.21-22.95 190.19-22.95L190.19-22.95Q194.63-22.95 196.89-20.07 199.15-17.19 199.15-11.62L199.15-11.62Q199.15-11.38 198.89-10.95 198.64-10.52 198.28-10.19 197.93-9.86 197.69-9.86L197.69-9.86 183.99-9.86Q184.26-6.23 185.86-4.55 187.46-2.88 190.68-2.88L190.68-2.88Q192.48-2.88 193.79-3.32 195.1-3.76 196.32-4.39L196.32-4.39Q196.44-4.44 196.68-4.57 196.93-4.69 197.03-4.69L197.03-4.69Q197.29-4.69 197.65-4.26 198-3.83 198.26-3.31 198.52-2.78 198.52-2.54L198.52-2.54Q198.52-2 197.44-1.34 196.37-0.68 194.57-0.22 192.78 0.24 190.73 0.24L190.73 0.24ZM183.99-12.99L195.27-12.99Q195.27-19.82 190.07-19.82L190.07-19.82Q184.48-19.82 183.99-12.99L183.99-12.99ZM206.76 0.07Q205.84 0.07 205.42-0.16 205.01-0.39 205.01-0.88L205.01-0.88 205.01-16.11Q205.01-18.95 204.74-20.2 204.47-21.46 204.47-21.58L204.47-21.58Q204.47-22.12 205.29-22.35 206.11-22.58 206.84-22.58L206.84-22.58Q207.42-22.58 207.72-21.96 208.01-21.34 208.23-20.21L208.23-20.21 208.35-19.7Q210.67-22.95 213.38-22.95L213.38-22.95Q214.63-22.95 215.26-22.5 215.9-22.05 215.9-21.29L215.9-21.29Q215.9-20.56 215.64-19.74 215.38-18.92 215.04-18.92L215.04-18.92Q214.87-18.92 214.43-19.07L214.43-19.07Q214.04-19.24 213.65-19.32 213.26-19.41 212.65-19.41L212.65-19.41Q211.65-19.41 210.76-18.82 209.87-18.24 209.25-17.53 208.64-16.82 208.64-16.75L208.64-16.75 208.64-0.88Q208.64-0.39 208.23-0.16 207.81 0.07 206.94 0.07L206.94 0.07 206.76 0.07ZM226.51 0.24Q223.19 0.24 221.14-1.39 219.09-3.03 219.09-6.25L219.09-6.25Q219.09-9.64 221.17-11.36 223.24-13.09 226.23-13.59 229.22-14.09 233.5-14.16L233.5-14.16 233.5-16.21Q233.5-17.85 232.38-18.84 231.27-19.82 228.73-19.82L228.73-19.82Q226.81-19.82 225.35-19.37 223.9-18.92 222.63-18.29L222.63-18.29Q222.09-18.02 221.97-18.02L221.97-18.02Q221.68-18.02 221.33-18.44 220.97-18.87 220.71-19.41 220.46-19.95 220.46-20.19L220.46-20.19Q220.46-20.75 221.62-21.41 222.78-22.07 224.66-22.51 226.54-22.95 228.59-22.95L228.59-22.95Q232.67-22.95 234.91-21.17 237.16-19.38 237.16-16.16L237.16-16.16 237.16-6.42Q237.16-3.59 237.41-2.33 237.67-1.07 237.67-0.95L237.67-0.95Q237.67-0.42 236.85-0.18 236.03 0.05 235.33 0.05L235.33 0.05Q234.74 0.05 234.46-0.61 234.18-1.27 233.91-2.51L233.91-2.51 233.81-3Q232.47-1.51 230.65-0.63 228.83 0.24 226.51 0.24L226.51 0.24ZM226.71-2.91Q228.86-2.91 230.37-3.69 231.88-4.47 233.5-5.91L233.5-5.91 233.5-11.04Q230.27-11.01 228.2-10.77 226.12-10.52 224.56-9.53 223-8.54 223-6.47L223-6.47Q223-4.74 223.94-3.82 224.88-2.91 226.71-2.91L226.71-2.91ZM250.88 0.24Q248.7 0.24 246.99-1.07 245.29-2.39 245.29-5.74L245.29-5.74 245.29-19.58 243.11-19.58Q242.65-19.58 242.44-19.89 242.23-20.19 242.23-20.87L242.23-20.87 242.23-21.41Q242.23-22.09 242.44-22.4 242.65-22.71 243.11-22.71L243.11-22.71 245.29-22.71 245.8-27.25Q245.85-28.2 247.19-28.2L247.19-28.2 247.6-28.2Q248.29-28.2 248.61-27.97 248.92-27.73 248.92-27.25L248.92-27.25 248.92-22.71 252.56-22.71Q253.02-22.71 253.23-22.4 253.44-22.09 253.44-21.41L253.44-21.41 253.44-20.87Q253.44-20.19 253.23-19.89 253.02-19.58 252.56-19.58L252.56-19.58 248.92-19.58 248.92-6.08Q248.92-4.3 249.55-3.59 250.17-2.88 251.24-2.88L251.24-2.88Q252.07-2.88 252.52-2.98 252.98-3.08 253.12-3.08L253.12-3.08Q253.51-3.08 253.77-2.29 254.03-1.51 254.03-1.05L254.03-1.05Q254.03 0.24 250.88 0.24L250.88 0.24ZM261.01-28.17Q259.27-28.17 259.27-29.13L259.27-29.13 259.27-31.69Q259.27-32.64 261.01-32.64L261.01-32.64 261.52-32.64Q263.28-32.64 263.28-31.69L263.28-31.69 263.28-29.13Q263.28-28.17 261.52-28.17L261.52-28.17 261.01-28.17ZM261.18 0.07Q259.44 0.07 259.44-0.88L259.44-0.88 259.44-21.83Q259.44-22.78 261.18-22.78L261.18-22.78 261.35-22.78Q263.1-22.78 263.1-21.83L263.1-21.83 263.1-0.88Q263.1 0.07 261.35 0.07L261.35 0.07 261.18 0.07ZM279.44 0.24Q274.53 0.24 271.95-2.7 269.38-5.64 269.38-11.25L269.38-11.25Q269.38-16.87 271.99-19.91 274.6-22.95 279.44-22.95L279.44-22.95Q284.22-22.95 286.76-19.93 289.3-16.92 289.3-11.25L289.3-11.25Q289.3-5.62 286.8-2.69 284.29 0.24 279.44 0.24L279.44 0.24ZM279.31-2.88Q282.49-2.88 284-4.94 285.51-7.01 285.51-11.33L285.51-11.33Q285.51-15.67 284-17.75 282.49-19.82 279.31-19.82L279.31-19.82Q276.16-19.82 274.67-17.76 273.19-15.7 273.19-11.33L273.19-11.33Q273.19-6.98 274.66-4.93 276.14-2.88 279.31-2.88L279.31-2.88ZM297.18 0.07Q296.25 0.07 295.84-0.16 295.42-0.39 295.42-0.88L295.42-0.88 295.42-16.11Q295.42-18.95 295.16-20.2 294.89-21.46 294.89-21.58L294.89-21.58Q294.89-22.12 295.7-22.35 296.52-22.58 297.26-22.58L297.26-22.58Q297.87-22.58 298.16-21.92 298.45-21.26 298.59-20.58 298.72-19.9 298.77-19.7L298.77-19.7Q300.14-21.24 301.93-22.09 303.72-22.95 305.56-22.95L305.56-22.95Q308.88-22.95 310.74-21.08 312.61-19.21 312.61-15.94L312.61-15.94 312.61-0.88Q312.61-0.39 312.2-0.16 311.78 0.07 310.88 0.07L310.88 0.07 310.68 0.07Q309.8 0.07 309.39-0.16 308.97-0.39 308.97-0.88L308.97-0.88 308.97-15.58Q308.97-17.58 307.81-18.69 306.65-19.8 304.55-19.8L304.55-19.8Q303.09-19.8 301.61-18.98 300.14-18.16 299.06-16.75L299.06-16.75 299.06-0.88Q299.06-0.39 298.65-0.16 298.23 0.07 297.35 0.07L297.35 0.07 297.18 0.07ZM336.87 0.24Q334.48 0.24 332.42-0.28 330.36-0.81 329.12-1.55 327.89-2.29 327.89-2.91L327.89-2.91Q327.89-3.25 328.17-3.81 328.45-4.37 328.82-4.81 329.18-5.25 329.4-5.25L329.4-5.25Q329.6-5.25 330.26-4.86L330.26-4.86Q331.77-4.08 333.26-3.56 334.75-3.05 336.87-3.05L336.87-3.05Q338.53-3.05 339.83-3.69 341.12-4.32 341.84-5.48 342.56-6.64 342.56-8.15L342.56-8.15Q342.56-9.77 341.7-10.83 340.83-11.89 339.6-12.51 338.36-13.13 336.02-14.06L336.02-14.06Q333.48-15.04 332-15.88 330.53-16.72 329.49-18.33 328.45-19.95 328.45-22.61L328.45-22.61Q328.45-24.93 329.65-26.77 330.84-28.61 333.04-29.64 335.24-30.66 338.09-30.66L338.09-30.66Q339.39-30.66 341.05-30.31 342.71-29.96 343.89-29.35 345.08-28.74 345.08-28L345.08-28Q345.08-27.69 344.82-27.14 344.56-26.59 344.22-26.15 343.88-25.71 343.69-25.71L343.69-25.71Q343.47-25.71 342.81-26.07L342.81-26.07Q341.71-26.66 340.63-27.01 339.56-27.37 338.02-27.37L338.02-27.37Q335.51-27.37 333.96-26.07 332.41-24.78 332.41-22.46L332.41-22.46Q332.41-21.07 333.09-20.17 333.77-19.26 334.82-18.73 335.87-18.19 337.75-17.48L337.75-17.48Q337.88-17.46 338.31-17.29L338.31-17.29Q340.9-16.28 342.55-15.34 344.2-14.4 345.36-12.65 346.52-10.89 346.52-8.15L346.52-8.15Q346.52-5.59 345.33-3.69 344.15-1.78 341.96-0.77 339.78 0.24 336.87 0.24L336.87 0.24ZM353.72 0.07Q351.98 0.07 351.98-0.88L351.98-0.88 351.98-31.69Q351.98-32.64 353.72-32.64L353.72-32.64 353.89-32.64Q355.65-32.64 355.65-31.69L355.65-31.69 355.65-19.97Q356.92-21.26 358.62-22.11 360.33-22.95 362.26-22.95L362.26-22.95Q365-22.95 367.08-21.41 369.17-19.87 369.17-15.94L369.17-15.94 369.17-0.88Q369.17 0.07 367.44 0.07L367.44 0.07 367.27 0.07Q365.51 0.07 365.51-0.88L365.51-0.88 365.51-15.58Q365.51-17.55 364.39-18.68 363.26-19.8 361.09-19.8L361.09-19.8Q359.65-19.8 358.44-19.12 357.23-18.43 356.44-17.64 355.65-16.85 355.65-16.75L355.65-16.75 355.65-0.88Q355.65 0.07 353.89 0.07L353.89 0.07 353.72 0.07ZM384.96 0.24Q380.06 0.24 377.48-2.7 374.91-5.64 374.91-11.25L374.91-11.25Q374.91-16.87 377.52-19.91 380.13-22.95 384.96-22.95L384.96-22.95Q389.75-22.95 392.29-19.93 394.83-16.92 394.83-11.25L394.83-11.25Q394.83-5.62 392.33-2.69 389.82 0.24 384.96 0.24L384.96 0.24ZM384.84-2.88Q388.02-2.88 389.53-4.94 391.04-7.01 391.04-11.33L391.04-11.33Q391.04-15.67 389.53-17.75 388.02-19.82 384.84-19.82L384.84-19.82Q381.69-19.82 380.2-17.76 378.71-15.7 378.71-11.33L378.71-11.33Q378.71-6.98 380.19-4.93 381.67-2.88 384.84-2.88L384.84-2.88ZM402.71 9.03Q400.95 9.03 400.95 8.08L400.95 8.08 400.95-16.11Q400.95-18.95 400.68-20.2 400.42-21.46 400.42-21.58L400.42-21.58Q400.42-22.12 401.23-22.35 402.05-22.58 402.78-22.58L402.78-22.58Q403.39-22.58 403.69-21.92 403.98-21.26 404.12-20.58 404.25-19.9 404.3-19.7L404.3-19.7Q407.4-22.95 411.21-22.95L411.21-22.95Q413.82-22.95 415.72-21.46 417.63-19.97 418.63-17.33 419.63-14.7 419.63-11.33L419.63-11.33Q419.63-7.67 418.52-5.05 417.41-2.44 415.41-1.1 413.4 0.24 410.79 0.24L410.79 0.24Q408.91 0.24 407.46-0.32 406.01-0.88 404.59-1.95L404.59-1.95 404.59 8.08Q404.59 9.03 402.88 9.03L402.88 9.03 402.71 9.03ZM409.96-2.95Q412.87-3.03 414.33-5.08 415.8-7.13 415.8-11.04L415.8-11.04Q415.8-15.23 414.42-17.52 413.04-19.8 410.45-19.8L410.45-19.8Q409.01-19.8 407.46-19.02 405.91-18.24 404.59-16.8L404.59-16.8 404.59-4.91Q406.98-2.95 409.96-2.95L409.96-2.95Z"
                                                                                          opacity="1"
                                                                                          transform="matrix(1,0,0,1,0,0)"
                                                                                          fill="#d9f8f5"
                                                                                          class="slogan-text-1"
                                                                                          data-fill-palette-color="quaternary"
                                                                                          id="text-1"></path>
                                                                                </svg>
                                                                            </g>
                                                                        </svg>
                                                                    </g>
                                                                </svg>
                                                            </g>
                                                        </svg>
                                                    </g>
                                                    <g transform="matrix(1,0,0,1,40.713262274387006,0)">
                                                        <svg viewBox="0 0 131.7319166783831 113.04208507764672"
                                                             height="113.04208507764672"
                                                             width="131.7319166783831">
                                                            <g>
                                                                <svg xmlns="http://www.w3.org/2000/svg"
                                                                     version="1.1"
                                                                     x="0" y="0"
                                                                     viewBox="5 11.384 90 77.231"
                                                                     enable-background="new 0 0 100 100"
                                                                     xml:space="preserve"
                                                                     height="113.04208507764672"
                                                                     width="131.7319166783831"
                                                                     class="icon-icon-0"
                                                                     data-fill-palette-color="quaternary"
                                                                     id="icon-0"><rect x="13.449" y="11.384" width="72.934" height="2.498" fill="#d9f8f5" data-fill-palette-color="quaternary"></rect><path
                                                                        d="M91.295 86.732c0 1.038-0.846 1.883-1.888 1.883H10.425c-1.042 0-1.888-0.845-1.888-1.883v-2.219c0-1.046 0.846-1.891 1.888-1.891h78.982c1.042 0 1.888 0.845 1.888 1.891V86.732z"
                                                                        fill="#d9f8f5"
                                                                        data-fill-palette-color="quaternary"></path><polygon
                                                                        points="14.824,16.878 5.166,33.861 18.653,33.861 25.48,16.878 "
                                                                        fill="#d9f8f5"
                                                                        data-fill-palette-color="quaternary"></polygon><polygon
                                                                        points="35.138,16.878 30.308,33.861 43.631,33.861 45.628,16.878 "
                                                                        fill="#d9f8f5"
                                                                        data-fill-palette-color="quaternary"></polygon><polygon
                                                                        points="85.343,16.878 95,33.861 81.513,33.861 74.686,16.878 "
                                                                        fill="#d9f8f5"
                                                                        data-fill-palette-color="quaternary"></polygon><polygon
                                                                        points="65.026,16.878 69.854,33.861 56.535,33.861 54.538,16.878 "
                                                                        fill="#d9f8f5"
                                                                        data-fill-palette-color="quaternary"></polygon><path
                                                                        d="M18.48 36.396c0 3.722-3.017 6.741-6.741 6.741l0 0C8.016 43.137 5 40.118 5 36.396H18.48z"
                                                                        fill="#d9f8f5"
                                                                        data-fill-palette-color="quaternary"></path><path
                                                                        d="M43.623 36.396c0 3.722-3.017 6.741-6.74 6.741l0 0c-3.72 0-6.741-3.019-6.741-6.741H43.623z"
                                                                        fill="#d9f8f5"
                                                                        data-fill-palette-color="quaternary"></path><path
                                                                        d="M69.69 36.396c0 3.722-3.019 6.741-6.74 6.741l0 0c-3.722 0-6.74-3.019-6.74-6.741H69.69z"
                                                                        fill="#d9f8f5"
                                                                        data-fill-palette-color="quaternary"></path><path
                                                                        d="M94.833 36.396c0 3.722-3.017 6.741-6.741 6.741l0 0c-3.719 0-6.737-3.019-6.737-6.741H94.833z"
                                                                        fill="#d9f8f5"
                                                                        data-fill-palette-color="quaternary"></path><path
                                                                        d="M88.092 44.645c-3.724 0-6.877-2.48-7.898-5.876H70.85c-1.022 3.396-4.176 5.876-7.899 5.876-3.726 0-6.878-2.48-7.899-5.876H44.783c-1.021 3.396-4.174 5.876-7.9 5.876-3.725 0-6.877-2.48-7.899-5.876H19.64c-1.022 3.396-4.175 5.876-7.9 5.876-0.978 0-1.914-0.18-2.786-0.493v33.939c0 1.041 0.846 1.888 1.888 1.888h78.149c1.042 0 1.888-0.847 1.888-1.888V44.15C90.007 44.464 89.071 44.645 88.092 44.645zM59.414 78.077H40.419V56.882c0-3.186 2.583-5.768 5.768-5.768h7.459c3.186 0 5.768 2.582 5.768 5.768V78.077z"
                                                                        fill="#d9f8f5"
                                                                        data-fill-palette-color="quaternary"></path></svg>
                                                            </g>
                                                        </svg>
                                                    </g>
                                                    <g></g>
                                                </svg>
                                            </g>
                                        </svg>
                                    </g>
                                </svg>
                            </g>
                        </svg>
                    </g>
                    <defs></defs>
                </svg>
                <rect width="333.90454557049503" height="333.90454557049503"
                      fill="none" stroke="none" visibility="hidden"></rect>
            </g>
        </svg>
    </g>
</svg>
